<svg width="23" height="23" viewBox="0 0 23 23" fill="none" xmlns="http://www.w3.org/2000/svg">
<g clip-path="url(#clip0_3_62)">
<path d="M6.96369 9.44851C6.64585 9.1018 6.09688 9.07287 5.75011 9.39071C5.4034 9.70856 5.37448 10.2575 5.69232 10.6043L10.0554 15.343C10.2288 15.5164 10.431 15.6319 10.6622 15.6319C10.6622 15.6319 10.6622 15.6319 10.691 15.6319C10.9222 15.6319 11.1533 15.5453 11.2978 15.3719L22.3356 4.36308C22.6823 4.01636 22.6823 3.46734 22.3356 3.1495C21.9889 2.80279 21.4398 2.80279 21.122 3.1495L10.72 13.5226L6.96369 9.44851Z" fill="#78DB57"/>
<path d="M22.1332 10.6332C21.642 10.6332 21.2664 11.0088 21.2664 11.5C21.2664 16.8743 16.8744 21.2663 11.5 21.2663C6.12563 21.2663 1.73367 16.8744 1.73367 11.5C1.73367 6.12568 6.12563 1.73367 11.5 1.73367C11.9913 1.73367 12.3668 1.35804 12.3668 0.866865C12.3668 0.375693 11.9912 0 11.5 0C5.1721 0 0 5.1721 0 11.5C0 17.828 5.1721 23.0001 11.5 23.0001C17.828 23.0001 23.0001 17.828 23.0001 11.5C23 11.0088 22.6244 10.6332 22.1332 10.6332Z" fill="#78DB57"/>
</g>
<defs>
<clipPath id="clip0_3_62">
<rect width="23" height="23" fill="white"/>
</clipPath>
</defs>
</svg>