<svg width="100" height="79" viewBox="0 0 100 79" fill="none" xmlns="http://www.w3.org/2000/svg">
<path fill-rule="evenodd" clip-rule="evenodd" d="M27.5375 8.3875C33.7843 3.00084 41.7515 0.0258657 50 0C66.8125 0 80.7688 12.5 82.2875 28.6187C92.2375 30.025 100 38.3562 100 48.5812C100 59.8063 90.6375 68.75 79.2938 68.75H67.5C66.6712 68.75 65.8763 68.4208 65.2903 67.8347C64.7042 67.2487 64.375 66.4538 64.375 65.625C64.375 64.7962 64.7042 64.0013 65.2903 63.4153C65.8763 62.8292 66.6712 62.5 67.5 62.5H79.3C87.3687 62.5 93.75 56.175 93.75 48.5812C93.75 40.9813 87.375 34.6562 79.2938 34.6562H76.1688V31.5312C76.175 17.6562 64.55 6.25 50 6.25C43.2492 6.27697 36.7303 8.71521 31.6187 13.125C26.8875 17.2 24.4125 22.1125 24.4125 25.9688V28.7688L21.6313 29.075C12.9 30.0312 6.25 37.2 6.25 45.7375C6.25 54.9062 13.9375 62.5 23.6312 62.5H32.5C33.3288 62.5 34.1237 62.8292 34.7097 63.4153C35.2958 64.0013 35.625 64.7962 35.625 65.625C35.625 66.4538 35.2958 67.2487 34.7097 67.8347C34.1237 68.4208 33.3288 68.75 32.5 68.75H23.6312C10.675 68.75 0 58.5375 0 45.7375C0 34.7188 7.9125 25.5938 18.3875 23.2812C19.2812 17.8875 22.75 12.5125 27.5375 8.3875Z" fill="#4B4B4B"/>
<path fill-rule="evenodd" clip-rule="evenodd" d="M47.7869 25.9124C48.0772 25.6214 48.4221 25.3905 48.8017 25.2329C49.1814 25.0754 49.5884 24.9943 49.9994 24.9943C50.4105 24.9943 50.8175 25.0754 51.1971 25.2329C51.5768 25.3905 51.9216 25.6214 52.2119 25.9124L70.9619 44.6624C71.5487 45.2492 71.8784 46.045 71.8784 46.8749C71.8784 47.7047 71.5487 48.5006 70.9619 49.0874C70.3751 49.6742 69.5793 50.0038 68.7494 50.0038C67.9196 50.0038 67.1237 49.6742 66.5369 49.0874L53.1244 35.6686V75.6249C53.1244 76.4537 52.7952 77.2485 52.2091 77.8346C51.6231 78.4206 50.8282 78.7499 49.9994 78.7499C49.1706 78.7499 48.3758 78.4206 47.7897 77.8346C47.2037 77.2485 46.8744 76.4537 46.8744 75.6249V35.6686L33.4619 49.0874C32.8751 49.6742 32.0793 50.0038 31.2494 50.0038C30.4196 50.0038 29.6237 49.6742 29.0369 49.0874C28.4501 48.5006 28.1205 47.7047 28.1205 46.8749C28.1205 46.045 28.4501 45.2492 29.0369 44.6624L47.7869 25.9124Z" fill="#4B4B4B"/>
</svg>